HIERARCHY
ROOT Hips
{
	OFFSET 0.00000 0.00000 0.00000
	CHANNELS 6 Xposition Yposition Zposition Zrotation Yrotation Xrotation 
	JOINT LHipJoint
	{
		OFFSET 0 0 0
		CHANNELS 3 Zrotation Yrotation Xrotation
		JOINT LeftHip
		{
			OFFSET 1.44361 -1.63093 0.70831
			CHANNELS 3 Zrotation Yrotation Xrotation
			JOINT LeftKnee
			{
				OFFSET 2.20103 -6.04728 0.00000
				CHANNELS 3 Zrotation Yrotation Xrotation
				JOINT LeftAnkle
				{
					OFFSET 2.54154 -6.98283 0.00000
					CHANNELS 3 Zrotation Yrotation Xrotation
					JOINT LeftToe
					{
						OFFSET 0.05971 -0.16406 1.77582
						CHANNELS 3 Zrotation Yrotation Xrotation
						End Site
						{
							OFFSET 0.00000 -0.00000 0.90832
						}
					}
				}
			}
		}
	}
	JOINT RHipJoint
	{
		OFFSET 0 0 0
		CHANNELS 3 Zrotation Yrotation Xrotation
		JOINT RightHip
		{
			OFFSET -1.65838 -1.63093 0.70830
			CHANNELS 3 Zrotation Yrotation Xrotation
			JOINT RightKnee
			{
				OFFSET -2.26926 -6.23475 0.00000
				CHANNELS 3 Zrotation Yrotation Xrotation
				JOINT RightAnkle
				{
					OFFSET -2.34808 -6.45129 0.00000
					CHANNELS 3 Zrotation Yrotation Xrotation
					JOINT RightToe
					{
						OFFSET -0.18633 -0.51195 1.68539
						CHANNELS 3 Zrotation Yrotation Xrotation
						End Site
						{
							OFFSET -0.00000 -0.00000 0.88927
						}
					}
				}
			}
		}
	}
	JOINT lowerback
	{
		OFFSET 0 0 0
		CHANNELS 3 Zrotation Yrotation Xrotation
		JOINT Chest
		{
			OFFSET -0.10393 2.01691 0.06920
			CHANNELS 3 Zrotation Yrotation Xrotation
			JOINT Chest2
			{
				OFFSET 0.04092 2.01302 -0.05283
				CHANNELS 3 Zrotation Yrotation Xrotation
				JOINT lowerneck
				{
					OFFSET 0 0 0
					CHANNELS 3 Zrotation Yrotation Xrotation
					JOINT Neck
					{
						OFFSET -0.02870 1.58978 -0.03113
						CHANNELS 3 Zrotation Yrotation Xrotation
						JOINT Head
						{
							OFFSET 0.11532 1.54326 -0.29195
							CHANNELS 3 Zrotation Yrotation Xrotation
							End Site
							{
								OFFSET 0.04056 1.59999 -0.09535
							}
						}
					}
				}
				JOINT LeftCollar
				{
					OFFSET 0 0 0
					CHANNELS 3 Zrotation Yrotation Xrotation
					JOINT LeftShoulder
					{
						OFFSET 3.30641 1.15764 0.01104
CHANNELS 3 Zrotation Xrotation Yrotation
						JOINT LeftElbow
						{
OFFSET 0 -4.632080 0.000000
CHANNELS 3 Zrotation Xrotation Yrotation
							JOINT LeftWrist
							{
OFFSET 0 -3.419240 -0.000000
CHANNELS 3 Zrotation Xrotation Yrotation
								JOINT lhand
								{
									OFFSET 0 0 0
CHANNELS 3 Zrotation Xrotation Yrotation
									JOINT LFingers
									{
OFFSET 0 -0.625370 -0.000000
CHANNELS 3 Zrotation Xrotation Yrotation
										End Site
										{
OFFSET 0 -0.504190 -0.000000
										}
									}
								}
								JOINT LThumb
								{
OFFSET 0 0.000000 0.000000
CHANNELS 3 Zrotation Xrotation Yrotation
									End Site
									{
OFFSET 0 -0.511890 0.511890
									}
								}
							}
						}
					}
				}
				JOINT RightCollar
				{
					OFFSET 0 0 0
					CHANNELS 3 Zrotation Yrotation Xrotation
					JOINT RightShoulder
					{
						OFFSET -3.78081 1.02180 -0.16609
CHANNELS 3 Zrotation Xrotation Yrotation
						JOINT RightElbow
						{
OFFSET 0 -4.406400 -0.000000
CHANNELS 3 Zrotation Xrotation Yrotation
							JOINT RightWrist
							{
OFFSET 0 -3.446750 0.000000
CHANNELS 3 Zrotation Xrotation Yrotation
								JOINT rhand
								{
									OFFSET 0 0 0
CHANNELS 3 Zrotation Xrotation Yrotation
									JOINT RFingers
									{
OFFSET 0 -0.513670 -0.000000
CHANNELS 3 Zrotation Xrotation Yrotation
										End Site
										{
OFFSET 0 -0.414140 -0.000000
										}
									}
								}
								JOINT RThumb
								{
OFFSET 0 0.000000 0.000000
CHANNELS 3 Zrotation Xrotation Yrotation
									End Site
									{
OFFSET 0 -0.420460 0.420460
									}
								}
							}
						}
					}
				}
			}
		}
	}
}
MOTION
Frames: 12
Frame Time: 0.008333333333333333
7.128400 16.647000 36.481700 178.967000 2.686100 -170.391000 0.000000 0.000000 0.000000 -22.380600 -10.071700 -3.403600 0.314500 3.605300 9.968700 0.773300 -0.622600 -16.418200 11.626600 -18.228300 -64.800100 0.000000 0.000000 0.000000 19.585200 4.051600 -4.540700 -0.204000 -2.907900 8.022400 -0.609100 3.078700 -14.014800 -1.745000 8.313300 -23.669900 -7.378400 1.199100 -7.603700 1.259600 2.246100 1.408200 5.751700 0.852500 5.426900 -3.976200 -0.166100 -6.922800 6.686500 -4.448800 29.155800 2.414100 -2.771000 10.685800 0.000000 0.000000 0.000000 -0.413100 -1.290800 -21.078100 9.845900 -16.498200 1.430900 25.249800 19.450700 17.235100 0.000000 0.000000 0.000000 -7.125000 0.000000 0.000000 -1.755200 11.055000 -1.386700 0.000000 0.000000 0.000000 3.943400 10.525900 -14.008100 -12.596000 -20.692400 -2.308600 -16.387200 26.269700 37.952100 0.000000 0.000000 0.000000 7.125000 0.000000 -0.000000 25.038300 67.512100 -13.903600
7.128725 16.646512 36.479586 178.977569 2.696019 -170.371487 0.000000 0.000000 0.000000 -22.347104 -10.043488 -3.440023 0.315313 3.609528 9.980570 0.776796 -0.650649 -16.447631 11.622291 -18.226349 -64.786441 0.000000 0.000000 0.000000 19.601217 4.142902 -4.549237 -0.207984 -2.935949 8.100450 -0.617149 3.047886 -14.114395 -1.732886 8.285982 -23.586159 -7.409051 1.161051 -7.646790 1.322853 2.198050 1.403241 5.832840 0.825752 5.450234 -4.057583 -0.098294 -6.830522 6.633003 -4.362538 29.261737 2.419141 -2.758154 10.701329 0.000000 0.000000 0.000000 -0.552208 -1.195107 -20.701752 9.763378 -16.368604 1.407566 25.165490 19.799730 17.074040 0.000000 0.000000 0.000000 -7.125000 0.000000 0.000000 -1.796420 11.241914 -1.412391 0.000000 0.000000 0.000000 3.929823 10.591917 -13.884521 -12.619822 -20.727604 -2.316974 -16.629318 26.419133 37.818764 0.000000 0.000000 0.000000 7.125000 0.000000 0.000000 24.584715 67.468034 -13.615140
7.128800 16.646150 36.477347 179.015058 2.701242 -170.337576 0.000000 0.000000 0.000000 -22.275105 -9.994805 -3.506497 0.316439 3.616072 9.999014 0.778727 -0.744558 -16.439876 11.595444 -18.214318 -64.700662 0.000000 0.000000 0.000000 19.646532 4.174856 -4.585883 -0.210089 -2.951039 8.142503 -0.621066 3.012691 -14.165472 -1.768664 8.366219 -23.832342 -7.397444 1.143285 -7.712418 1.371269 2.175669 1.398406 5.877856 0.812776 5.484461 -4.049631 -0.059286 -6.724409 6.527232 -4.310834 29.333116 2.385617 -2.755388 10.701144 0.000000 0.000000 0.000000 -0.640732 -1.114941 -20.384566 9.666270 -16.215845 1.380351 25.047686 20.130918 16.976211 0.000000 0.000000 0.000000 -7.125000 0.000000 0.000000 -1.865625 11.365221 -1.462123 0.000000 0.000000 0.000000 3.971900 10.679095 -13.744789 -12.656164 -20.781276 -2.329856 -15.978573 25.927624 37.588330 0.000000 0.000000 0.000000 7.125000 0.000000 0.000000 25.026936 67.072069 -13.645962
7.128361 16.645649 36.473490 179.036878 2.697556 -170.295851 0.000000 0.000000 0.000000 -22.234768 -9.951028 -3.552308 0.315727 3.612112 9.987983 0.777117 -0.811245 -16.402661 11.583205 -18.208849 -64.661530 0.000000 0.000000 0.000000 19.669380 4.136703 -4.632812 -0.210844 -2.956288 8.157120 -0.624364 3.009379 -14.204824 -1.821688 8.483891 -24.194099 -7.385685 1.142554 -7.801681 1.393081 2.179394 1.397034 5.898474 0.812476 5.532786 -4.001253 -0.045432 -6.680374 6.444134 -4.302645 29.408224 2.347996 -2.762306 10.717736 0.000000 0.000000 0.000000 -0.679198 -1.012891 -20.195254 9.584080 -16.086331 1.357465 24.977133 20.340118 17.010282 0.000000 0.000000 0.000000 -7.125000 0.000000 0.000000 -1.915218 11.338822 -1.502174 0.000000 0.000000 0.000000 4.079117 10.763943 -13.596414 -12.712228 -20.864042 -2.349835 -15.572143 25.512252 37.465005 0.000000 0.000000 0.000000 7.125000 0.000000 0.000000 25.330744 66.842654 -13.691706
7.126892 16.644519 36.467883 179.018085 2.688634 -170.251387 0.000000 0.000000 0.000000 -22.268298 -9.937510 -3.560878 0.313470 3.599246 9.951917 0.773595 -0.807138 -16.366301 11.595039 -18.214154 -64.699305 0.000000 0.000000 0.000000 19.635340 4.039922 -4.683644 -0.210749 -2.955417 8.154627 -0.627882 3.062699 -14.239297 -1.857908 8.563662 -24.439659 -7.392437 1.152609 -7.908719 1.383176 2.202581 1.399159 5.898877 0.821132 5.592566 -3.943515 -0.047213 -6.705008 6.416484 -4.329659 29.493332 2.324535 -2.775235 10.755362 0.000000 0.000000 0.000000 -0.676856 -0.878172 -20.137290 9.526978 -15.996222 1.341673 24.989225 20.395204 17.181851 0.000000 0.000000 0.000000 -7.125000 0.000000 0.000000 -1.922337 11.151461 -1.515060 0.000000 0.000000 0.000000 4.243840 10.825114 -13.494018 -12.782131 -20.967141 -2.374815 -15.874690 25.573352 37.544677 0.000000 0.000000 0.000000 7.125000 0.000000 0.000000 25.089165 67.002689 -13.642876
7.123946 16.642266 36.461692 178.954312 2.682012 -170.208135 0.000000 0.000000 0.000000 -22.382998 -9.972292 -3.546036 0.311724 3.589377 9.924201 0.771800 -0.734978 -16.368143 11.619244 -18.224960 -64.776591 0.000000 0.000000 0.000000 19.534545 3.918424 -4.740309 -0.210372 -2.953001 8.147800 -0.630266 3.172339 -14.253166 -1.853829 8.554816 -24.412259 -7.416714 1.162905 -8.019081 1.347032 2.229718 1.402404 5.881867 0.831367 5.655310 -3.897869 -0.048790 -6.745573 6.442494 -4.365015 29.564032 2.321624 -2.786153 10.792683 0.000000 0.000000 0.000000 -0.656677 -0.724706 -20.142561 9.487551 -15.934049 1.330824 25.072356 20.350331 17.425018 0.000000 0.000000 0.000000 -7.125000 0.000000 0.000000 -1.889033 10.876107 -1.499430 0.000000 0.000000 0.000000 4.435441 10.847655 -13.497878 -12.848599 -21.065000 -2.398612 -16.702123 26.143062 37.810133 0.000000 0.000000 0.000000 7.125000 0.000000 0.000000 24.489676 67.482342 -13.567792
7.120775 16.639339 36.459090 178.895775 2.672175 -170.172362 0.000000 0.000000 0.000000 -22.481617 -10.028391 -3.568963 0.313268 3.597833 9.947941 0.771800 -0.669774 -16.387412 11.634772 -18.231952 -64.826429 0.000000 0.000000 0.000000 19.441454 3.871268 -4.805350 -0.211266 -2.959262 8.165280 -0.627339 3.204047 -14.215279 -1.880415 8.612459 -24.590311 -7.440617 1.139246 -8.081277 1.337438 2.206222 1.403705 5.885200 0.817221 5.695392 -3.931203 -0.008708 -6.655328 6.501113 -4.318998 29.519478 2.354389 -2.765583 10.756260 0.000000 0.000000 0.000000 -0.713833 -0.613647 -19.916053 9.429502 -15.842259 1.314889 25.105528 20.556757 17.436482 0.000000 0.000000 0.000000 -7.125000 0.000000 0.000000 -1.868220 10.858708 -1.483576 0.000000 0.000000 0.000000 4.522109 10.843346 -13.463894 -12.869819 -21.096220 -2.406254 -16.561308 26.201274 37.984120 0.000000 0.000000 0.000000 7.125000 0.000000 0.000000 24.881471 67.592750 -13.857390
7.117605 16.637310 36.457594 178.845531 2.659642 -170.158706 0.000000 0.000000 0.000000 -22.565239 -10.058364 -3.563208 0.312602 3.594262 9.937815 0.771800 -0.641408 -16.396244 11.665783 -18.245717 -64.925409 0.000000 0.000000 0.000000 19.364813 3.865790 -4.837355 -0.212782 -2.969600 8.194164 -0.625103 3.203478 -14.189004 -1.887026 8.626698 -24.634417 -7.470948 1.109367 -8.098548 1.342289 2.170492 1.400375 5.904085 0.798098 5.706169 -3.962533 0.042225 -6.546905 6.556967 -4.275469 29.521163 2.385426 -2.751096 10.733729 0.000000 0.000000 0.000000 -0.801053 -0.518416 -19.584836 9.349611 -15.715842 1.293217 25.057143 20.898718 17.337223 0.000000 0.000000 0.000000 -7.125000 0.000000 0.000000 -1.891226 10.973250 -1.497442 0.000000 0.000000 0.000000 4.558323 10.861016 -13.352846 -12.869199 -21.095302 -2.406018 -16.175410 25.919163 37.883166 0.000000 0.000000 0.000000 7.125000 0.000000 0.000000 25.189015 67.388339 -13.920843
7.114182 16.636398 36.455285 178.828513 2.650112 -170.142900 0.000000 0.000000 0.000000 -22.611680 -10.091091 -3.551789 0.311847 3.589932 9.925650 0.773867 -0.662796 -16.412059 11.674516 -18.249635 -64.953343 0.000000 0.000000 0.000000 19.327372 3.848400 -4.864291 -0.214207 -2.979346 8.221328 -0.624149 3.212847 -14.176321 -1.888049 8.628897 -24.641192 -7.472615 1.084340 -8.126401 1.357503 2.138807 1.405001 5.918804 0.780820 5.731341 -3.989324 0.064115 -6.471124 6.626854 -4.278057 29.525152 2.415301 -2.754420 10.722067 0.000000 0.000000 0.000000 -0.889945 -0.449722 -19.237978 9.255434 -15.566531 1.267861 25.008495 21.235185 17.280353 0.000000 0.000000 0.000000 -7.125000 0.000000 0.000000 -1.918176 11.042086 -1.516145 0.000000 0.000000 0.000000 4.577372 10.825085 -13.313920 -12.811890 -21.010922 -2.385435 -16.012249 25.972518 37.641267 0.000000 0.000000 0.000000 7.125000 0.000000 0.000000 25.060314 67.127307 -13.699998
7.111144 16.636327 36.452929 178.863623 2.637004 -170.103404 0.000000 0.000000 0.000000 -22.585325 -10.141237 -3.578381 0.312769 3.595127 9.940254 0.776883 -0.708780 -16.430710 11.656163 -18.241493 -64.894734 0.000000 0.000000 0.000000 19.354704 3.832852 -4.913766 -0.215381 -2.987496 8.243986 -0.623492 3.197470 -14.170204 -1.930563 8.718683 -24.919998 -7.427831 1.064131 -8.180751 1.388605 2.110095 1.416365 5.925644 0.765051 5.779122 -4.022497 0.061491 -6.445278 6.697484 -4.306787 29.523941 2.443445 -2.766728 10.720384 0.000000 0.000000 0.000000 -0.977311 -0.418096 -18.908647 9.158035 -15.411883 1.241821 24.974679 21.533726 17.245106 0.000000 0.000000 0.000000 -7.125000 0.000000 0.000000 -1.937324 11.085293 -1.529589 0.000000 0.000000 0.000000 4.596653 10.728728 -13.339614 -12.692714 -20.835146 -2.342930 -16.218436 26.633478 37.283537 0.000000 0.000000 0.000000 7.125000 0.000000 0.000000 24.369764 66.872922 -13.165401
7.109118 16.636587 36.451427 178.950975 2.621781 -170.031760 0.000000 0.000000 0.000000 -22.475099 -10.205470 -3.663653 0.315708 3.612098 9.987847 0.779586 -0.745291 -16.449159 11.622266 -18.226346 -64.786325 0.000000 0.000000 0.000000 19.450650 3.848638 -4.996684 -0.216278 -2.993873 8.261689 -0.622309 3.129070 -14.164686 -2.035291 8.938904 -25.604610 -7.339514 1.051500 -8.257004 1.435095 2.087674 1.425929 5.925728 0.753215 5.837172 -4.058923 0.051766 -6.461732 6.744759 -4.333084 29.533613 2.463924 -2.778095 10.730704 0.000000 0.000000 0.000000 -1.059595 -0.412232 -18.626119 9.070920 -15.273408 1.218713 24.940571 21.800360 17.150295 0.000000 0.000000 0.000000 -7.125000 0.000000 0.000000 -1.951552 11.192778 -1.536501 0.000000 0.000000 0.000000 4.629723 10.598631 -13.420671 -12.565177 -20.646781 -2.297685 -16.557619 27.556305 36.957057 0.000000 0.000000 0.000000 7.125000 0.000000 0.000000 23.574797 66.683810 -12.612631
7.107979 16.636506 36.449719 179.044472 2.642270 -169.955336 0.000000 0.000000 0.000000 -22.348349 -10.237747 -3.742028 0.317009 3.619578 10.008741 0.783245 -0.747730 -16.487615 11.603323 -18.217890 -64.725917 0.000000 0.000000 0.000000 19.557725 3.916932 -5.074002 -0.216766 -2.997450 8.271608 -0.621740 3.063947 -14.166475 -2.115781 9.103134 -26.118521 -7.254066 1.068980 -8.323834 1.471274 2.104991 1.414872 5.920280 0.763296 5.861969 -4.039085 0.050302 -6.470676 6.736385 -4.361702 29.613615 2.454087 -2.794925 10.764444 0.000000 0.000000 0.000000 -1.109515 -0.356865 -18.459530 9.011732 -15.179179 1.203184 24.854228 22.062966 16.876794 0.000000 0.000000 0.000000 -7.125000 0.000000 0.000000 -1.984967 11.501076 -1.550241 0.000000 0.000000 0.000000 4.691675 10.498304 -13.692708 -12.635584 -20.750929 -2.322563 -15.902161 26.857675 37.279583 0.000000 0.000000 0.000000 7.125000 0.000000 0.000000 24.721727 66.776901 -13.308984
